<svg width="24" height="26" viewBox="0 0 24 26" fill="none" xmlns="http://www.w3.org/2000/svg">
<path d="M6.05507 25.2639C5.49914 24.9276 5.00643 24.512 4.59588 24.0332C4.14428 23.5389 3.72585 23.0204 3.34288 22.4803C2.44418 21.2831 1.73939 19.9746 1.25015 18.595C0.66242 16.9925 0.377808 15.4564 0.377808 13.954C0.377808 12.2762 0.77697 10.8115 1.55767 9.58073C2.13639 8.61876 2.98726 7.81488 4.02225 7.25225C5.02527 6.68573 6.17776 6.3757 7.35829 6.35483C7.77155 6.35483 8.21653 6.40931 8.68883 6.51348C9.02808 6.60082 9.44134 6.73864 9.94624 6.91011C10.5886 7.13526 10.9419 7.27308 11.0618 7.30673C11.438 7.43173 11.7544 7.48622 12.0028 7.48622C12.1914 7.48622 12.4575 7.43173 12.7598 7.3484C12.9298 7.29391 13.2506 7.19776 13.7096 7.01908C14.1643 6.86844 14.5221 6.73944 14.8067 6.64328C15.2428 6.5263 15.6649 6.41813 16.0412 6.36364C16.4872 6.2997 16.9399 6.28276 17.3902 6.31316C18.1706 6.35954 18.9392 6.50992 19.6715 6.75947C20.869 7.19776 21.8374 7.88204 22.5582 8.85478C22.2535 9.02553 21.9676 9.22248 21.7043 9.44291C21.1312 9.90491 20.6431 10.4473 20.2584 11.0495C19.7555 11.8724 19.4948 12.7995 19.5014 13.7409C19.5199 14.8971 19.846 15.9155 20.4883 16.7961C20.9606 17.4488 21.5744 18.0069 22.2921 18.4363C22.6595 18.6615 22.9758 18.8161 23.2789 18.9203C23.1371 19.3209 22.9855 19.7087 22.8066 20.0934C22.401 20.9558 21.9093 21.7827 21.3378 22.5637C20.8285 23.2359 20.4293 23.7367 20.1262 24.07C19.6539 24.5789 19.1992 24.9675 18.7401 25.2383C18.2352 25.5428 17.6387 25.7054 17.0325 25.7054C16.6219 25.7198 16.2114 25.6746 15.8165 25.5716C15.4772 25.4675 15.1415 25.3545 14.8111 25.2255C14.4675 25.082 14.1133 24.9607 13.751 24.8625C12.8555 24.6533 11.9166 24.652 11.0204 24.8585C10.6529 24.9546 10.2996 25.0668 9.95064 25.2046C9.45984 25.3921 9.13381 25.5179 8.94525 25.5716C8.569 25.6718 8.17864 25.7343 7.78389 25.7551C7.17325 25.7551 6.60403 25.5965 6.04009 25.2752L6.05507 25.2639ZM14.1088 5.54074C13.3105 5.90371 12.5483 6.05836 11.7914 6.00788C11.6724 5.31478 11.7914 4.60566 12.1077 3.82923C12.377 3.17145 12.7749 2.56338 13.2823 2.03439C13.818 1.47753 14.4681 1.02109 15.1961 0.690669C15.9716 0.327695 16.7108 0.131385 17.4175 0.102539C17.5092 0.828487 17.4175 1.54242 17.1241 2.31404C16.8526 2.99614 16.4554 3.63126 15.9495 4.19221C15.4332 4.74983 14.7996 5.20804 14.0859 5.53994L14.1088 5.54074Z" fill="black"/>
</svg>
