<svg width="27" height="24" viewBox="0 0 27 24" fill="none" xmlns="http://www.w3.org/2000/svg">
<path d="M6.15334 14.3539L5.26107 17.3829L1.99986 17.4456C1.02523 15.8018 0.472412 13.921 0.472412 11.9224C0.472412 9.98978 0.989288 8.16726 1.90549 6.5625H1.90619L4.80958 7.04654L6.08145 9.67087C5.81525 10.3766 5.67016 11.1341 5.67016 11.9224C5.67026 12.778 5.84068 13.5977 6.15334 14.3539Z" fill="#FBBB00"/>
<path d="M25.8823 9.74512C26.0295 10.4501 26.1063 11.1782 26.1063 11.9224C26.1063 12.7568 26.0098 13.5707 25.826 14.3558C25.2021 17.0275 23.5718 19.3603 21.3134 21.0112L21.3127 21.0106L17.6557 20.8409L17.1382 17.9028C18.6367 17.1037 19.8078 15.853 20.4248 14.3558H13.5713V9.74512H20.5247H25.8823Z" fill="#518EF8"/>
<path d="M21.3121 21.0102L21.3128 21.0108C19.1164 22.6162 16.3262 23.5768 13.2889 23.5768C8.40801 23.5768 4.16441 21.096 1.99963 17.4452L6.15311 14.3535C7.23548 16.9803 10.0221 18.8502 13.2889 18.8502C14.6931 18.8502 16.0086 18.505 17.1375 17.9024L21.3121 21.0102Z" fill="#28B446"/>
<path d="M21.4702 2.95073L17.3181 6.0418C16.1499 5.37775 14.7689 4.99414 13.2893 4.99414C9.94851 4.99414 7.10979 6.94983 6.08165 9.67081L1.90634 6.56244H1.90564C4.03873 2.82267 8.33585 0.267578 13.2893 0.267578C16.3991 0.267578 19.2505 1.2749 21.4702 2.95073Z" fill="#F14336"/>
</svg>
